# xmcd
#
# Track frame offsets: 
#        150
#        31560
#        72309
#        101010
#        140350
#        175881
#        210345
#        244024
#
# Disc length: 3724 seconds
#
# Revision: 0
# Processed by: cddbd v1.5.2PL0 Copyright (c) Steve Scherf et al.
# Submitted via: ExactAudioCopyFreeDBPlugin 1.0
#
DISCID=630e8a08
DTITLE=Melvin Hancox Band - Lysergic Visions
DYEAR=2019
DGENRE=Psychedelic Rock
TTITLE0=Buzzing with the Beez
TTITLE1=Psychedelic Road
TTITLE2=I Remember
TTITLE3=Lysergic Visions
TTITLE4=Come the End
TTITLE5=Sleepwalk
TTITLE6=Feel the Flow
TTITLE7=Thrill is a Thrill
EXTD=
EXTT0=
EXTT1=
EXTT2=
EXTT3=
EXTT4=
EXTT5=
EXTT6=
EXTT7=
PLAYORDER=
